
        <svg xmlns="http://www.w3.org/2000/svg" xmlns:xlink="http://www.w3.org/1999/xlink" version="1.1" width="3146.2621885157096" height="862.946912242687" viewBox="0 0 3146.2621885157096 862.946912242687">
			
			<g transform="scale(7.313109425785482) translate(10, 10)">
				<defs id="SvgjsDefs6841"/><g id="SvgjsG6842" featureKey="symbolGroupContainer" transform="matrix(1,0,0,1,0,0)" fill="#fff"><rect xmlns="http://www.w3.org/2000/svg" width="118" height="98" rx="10" ry="10"/></g><g id="SvgjsG6843" featureKey="nRdZyp-0" transform="matrix(1.3934572826027791,0,0,1.3934572826027791,5.178186794814971,-4.630446108506156)" fill="#000000"><g xmlns="http://www.w3.org/2000/svg"><path style="" d="M 27.449219 59.050781 L 10.636719 38.464844 L 27.441406 17.679688 L 32.019531 21.375 L 18.21875 38.445312 L 32.007812 55.328125 Z M 27.449219 59.050781 " stroke="none" fill-rule="nonzero" fill-opacity="1"/><path style="" d="M 49.648438 59.050781 L 45.074219 55.351562 L 58.871094 38.28125 L 45.082031 21.398438 L 49.640625 17.675781 L 66.453125 38.261719 Z M 49.648438 59.050781 " stroke="none" fill-rule="nonzero" fill-opacity="1"/></g></g><g id="SvgjsG6844" featureKey="Q4qmbg-0" transform="matrix(4.213558331184411,0,0,4.213558331184411,134.4606113634577,-3.573418173460702)" fill="#fff"><path d="M3.82 5.119999999999999 l0 14.88 l-2.98 0 l0 -14.88 l2.98 0 z M7.887708333333332 13.04 l-2.2 -1.26 c1.1 -1.24 2.58 -1.82 4.12 -1.82 c2.96 0 4.16 1.62 4.16 3.14 l0 6.9 l-2.96 0 l0 -0.7 c-0.46 0.48 -1.28 0.84 -2.2 0.84 c-2.7 0 -3.74 -1.2 -3.74 -3.04 c0 -2.08 1.68 -3.48 4.4 -3.48 l1.54 0 c0 -0.74 -0.56 -1.22 -1.4 -1.22 c-0.86 0 -1.28 0.16 -1.72 0.64 z M11.007708333333333 16.740000000000002 l0 -0.88 l-1.74 0 c-0.78 0 -1.36 0.54 -1.24 1.3 c0.08 0.54 0.56 0.76 1.24 0.76 c1.3 0 1.74 -0.74 1.74 -1.18 z M31.715416666666663 20 l-2.98 0 l0 -5.64 c0 -1.52 -0.42 -2.16 -1.54 -2.16 c-1.2 0 -1.9 0.64 -1.9 2.16 l0 5.64 l-2.98 0 l0 -5.64 c0 -1.52 -0.4 -2.16 -1.54 -2.16 c-1.2 0 -1.92 0.64 -1.92 2.16 l0 5.64 l-2.96 0 l0 -9.88 l2.96 0 l0 0.9 c0.7 -0.7 1.76 -1.04 2.7 -1.04 c1.4 0 2.3 0.52 2.94 1.34 c0.54 -0.66 1.7 -1.26 3.44 -1.34 c2.78 0 3.78 1.32 3.78 4.38 l0 5.64 z M36.443124999999995 10.12 l0 9.88 l-2.96 0 l0 -9.88 l2.96 0 z M36.52312499999999 7.279999999999999 c0 0.84 -0.68 1.5 -1.58 1.5 c-0.86 0 -1.56 -0.66 -1.56 -1.5 c0 -0.82 0.7 -1.46 1.56 -1.46 c0.9 0 1.58 0.64 1.58 1.46 z M47.29083333333333 14.36 l0 5.64 l-2.96 0 l0 -5.64 c0 -1.5 -0.4 -2.16 -1.56 -2.16 c-1.2 0 -1.9 0.66 -1.9 2.16 l0 5.64 l-2.96 0 l0 -9.88 l2.96 0 l0 0.94 c0.76 -0.74 1.8 -1.08 2.66 -1.08 c2.78 0 3.76 1.34 3.76 4.38 z M51.09854166666666 13.04 l-2.2 -1.26 c1.1 -1.24 2.58 -1.82 4.12 -1.82 c2.96 0 4.16 1.62 4.16 3.14 l0 6.9 l-2.96 0 l0 -0.7 c-0.46 0.48 -1.28 0.84 -2.2 0.84 c-2.7 0 -3.74 -1.2 -3.74 -3.04 c0 -2.08 1.68 -3.48 4.4 -3.48 l1.54 0 c0 -0.74 -0.56 -1.22 -1.4 -1.22 c-0.86 0 -1.28 0.16 -1.72 0.64 z M54.21854166666667 16.740000000000002 l0 -0.88 l-1.74 0 c-0.78 0 -1.36 0.54 -1.24 1.3 c0.08 0.54 0.56 0.76 1.24 0.76 c1.3 0 1.74 -0.74 1.74 -1.18 z M65.44624999999999 10.26 l-0.4 2.22 c-0.74 -0.32 -0.88 -0.26 -1.22 -0.26 c-1.2 0 -1.9 0.64 -1.9 2.22 l0 5.56 l-2.96 0 l0 -9.88 l2.96 0 l0 0.88 c0.38 -0.68 1.42 -1.02 2.08 -1.02 c0.62 0 0.98 0.02 1.44 0.28 z"/></g>
			</g>
		</svg>
	